<svg id="Layer_1" data-name="Layer 1" xmlns="http://www.w3.org/2000/svg" viewBox="0 0 280 300"><defs><style>.cls-1{fill:#414042;}.cls-2{fill:#f48220;}</style></defs><title>DevExpress Logo</title><path class="cls-1" d="M97.7,140a27.48,27.48,0,0,0-4.7.38v17.86a30.86,30.86,0,0,0,4,.24c3.16,0,5.69-.73,7.35-2.22,1.39-1.25,2.74-3.52,2.74-7.42,0-3.29-1-5.53-2.74-6.95-1.52-1.25-3.57-1.89-6.6-1.89m.12,15.69a8,8,0,0,1-1.35-.07V142.9a9,9,0,0,1,1.66-.15c3.24,0,5.24,2,5.24,6.15,0,4.77-2.22,6.83-5.55,6.8"/><path class="cls-1" d="M114.82,144.88c-3.85,0-6,3.26-6,7,0,4.09,2.31,6.64,6.38,6.64a11.19,11.19,0,0,0,4.25-.75l-.5-2.42a9.49,9.49,0,0,1-3.21.55c-1.89,0-3.5-.9-3.59-3.14H120a8.29,8.29,0,0,0,.09-1.4c0-4.25-2.08-6.52-5.27-6.52m-2.69,5.48c.09-1.3.8-3.05,2.48-3.05s2.27,1.68,2.24,3.05Z"/><path class="cls-1" d="M129.86,145.16l-1.66,6.38c-.28,1.16-.52,2.22-.73,3.36h-.07c-.21-1.14-.45-2.22-.73-3.36l-1.73-6.38h-3.76l4.42,13.17H129l4.49-13.17h-3.61"/><path class="cls-1" d="M60.87,157.12a14.71,14.71,0,0,0-1.53,2.24,2.5,2.5,0,0,0-.26,1v.48a1.5,1.5,0,0,0,1.5,1.5H83.51a1.5,1.5,0,0,0,1.49-1.5V143.19a39.18,39.18,0,0,0-24.13,13.93"/><polygon class="cls-2" points="138.98 150.34 144.92 150.34 144.92 147.48 138.98 147.48 138.98 143.09 145.27 143.09 145.27 140.16 135.49 140.16 135.49 158.33 145.65 158.33 145.65 155.4 138.98 155.4 138.98 150.34"/><path class="cls-2" d="M158.86,145.16h-3.71L154,147.53c-.33.68-.64,1.39-1,2.1H153c-.33-.66-.63-1.35-1-2.08l-1.25-2.39h-3.88l3.9,6.5-4,6.67h3.73l1.23-2.56c.33-.68.66-1.37,1-2.08h0c.33.71.63,1.4,1,2.08l1.3,2.56h3.92l-4-6.81,3.92-6.36"/><path class="cls-2" d="M167.73,144.88a4.39,4.39,0,0,0-3.9,2.08h-.05l-.16-1.8h-3.05c.05,1.21.1,2.6.1,4.31v14.12h3.49v-6.54h.05a3.66,3.66,0,0,0,3.12,1.54c2.67,0,5.41-2.13,5.41-7,0-4-2.13-6.73-5-6.73m-1.23,11c-1.18,0-2.34-.92-2.34-2.83v-2.46a2.66,2.66,0,0,1,2.41-2.86c1.73,0,2.63,1.7,2.63,4s-.93,4.11-2.7,4.11"/><path class="cls-2" d="M178.35,147.46h-.1l-.14-2.3h-3c0,1.18.09,2.49.09,4.12v9.05h3.5v-6.81c0-2.24,1.21-3.31,2.79-3.31a5.67,5.67,0,0,1,.9.07V145a3.52,3.52,0,0,0-.78-.07,3.63,3.63,0,0,0-3.26,2.58"/><path class="cls-2" d="M189.65,144.88c-3.86,0-6,3.26-6,7,0,4.09,2.32,6.64,6.38,6.64a11.24,11.24,0,0,0,4.26-.75l-.5-2.42a9.49,9.49,0,0,1-3.21.55c-1.89,0-3.5-.9-3.6-3.14h7.87a8.2,8.2,0,0,0,.1-1.4c0-4.25-2.08-6.52-5.27-6.52m-2.7,5.48c.1-1.3.81-3.05,2.49-3.05s2.26,1.68,2.24,3.05Z"/><path class="cls-2" d="M202.18,150.39c-1.52-.64-2-1-2-1.75s.57-1.25,1.63-1.25a5.41,5.41,0,0,1,2.48.68l.66-2.46a7.15,7.15,0,0,0-3.26-.73c-2.93,0-4.82,1.8-4.82,4.16,0,1.44.9,2.83,3.36,3.83,1.44.61,1.89,1,1.89,1.84s-.59,1.32-1.82,1.32a6.9,6.9,0,0,1-3.07-.87l-.67,2.53a7.7,7.7,0,0,0,3.71.87c3.29,0,5.18-1.65,5.18-4.16,0-1.82-1-3.09-3.26-4"/><path class="cls-2" d="M212.65,150.39c-1.51-.64-2-1-2-1.75s.57-1.25,1.63-1.25a5.37,5.37,0,0,1,2.48.68l.67-2.46a7.21,7.21,0,0,0-3.26-.73c-2.93,0-4.82,1.8-4.82,4.16,0,1.44.89,2.83,3.35,3.83,1.44.61,1.89,1,1.89,1.84S212,156,210.76,156a6.94,6.94,0,0,1-3.07-.87l-.66,2.53a7.67,7.67,0,0,0,3.71.87c3.28,0,5.17-1.65,5.17-4.16,0-1.82-1-3.09-3.26-4"/><path class="cls-2" d="M83.51,136.41H60.58a1.5,1.5,0,0,0-1.5,1.49v13.75c4.54-4.77,12.62-10,24.94-11.41a1,1,0,0,0,1-1.1V137.9a1.49,1.49,0,0,0-1.49-1.49"/><path class="cls-2" d="M219.28,144.39h0c.38-.1.58-.31.58-.64a.56.56,0,0,0-.24-.49,1.13,1.13,0,0,0-.69-.18h-.79v2.4h.47v-1h.21c.15,0,.26.12.35.36l.21.6h.56l-.29-.68a.59.59,0,0,0-.37-.4m-.34-.24h-.33v-.7h.28c.31,0,.46.12.46.35l-.11.25-.3.1"/><path class="cls-2" d="M220.36,142.92a2.06,2.06,0,0,0-2.8,0,1.94,1.94,0,0,0,0,2.73,2.07,2.07,0,0,0,2.79,0,1.82,1.82,0,0,0,.57-1.36,1.84,1.84,0,0,0-.56-1.37m-.24,2.54a1.55,1.55,0,0,1-1.16.48,1.62,1.62,0,0,1-1.17-.47,1.65,1.65,0,0,1,1.17-2.82,1.62,1.62,0,0,1,1.17.47,1.6,1.6,0,0,1,.48,1.18,1.53,1.53,0,0,1-.49,1.16"/></svg>